<?xml version="1.0" encoding="utf-8"?>
<!-- Generator: Adobe Illustrator 27.5.0, SVG Export Plug-In . SVG Version: 6.00 Build 0)  -->
<svg version="1.1" id="Layer_1" xmlns="http://www.w3.org/2000/svg" xmlns:xlink="http://www.w3.org/1999/xlink" x="0px" y="0px"
	 viewBox="0 0 340.2 98.6" style="enable-background:new 0 0 340.2 98.6;" xml:space="preserve">
<style type="text/css">
	.st0{fill:#7230FA;}
	.st1{fill:#FFFFFF;}
	.st2{fill:#100050;}
</style>
<g>
	<path class="st0" d="M2.6,17.5v78.9l17-16.4c1.6-1.7,3.8-2.7,6.2-2.7H127c8.4,0,15.3-6.8,15.3-15.3V17.5c0-8.4-6.8-15.3-15.3-15.3
		H38.2H17.8C9.4,2.2,2.6,9,2.6,17.5z"/>
	<g>
		<path class="st1" d="M27.1,54.6c-2.6-1.4-4.6-3.4-6.1-6.1c-1.5-2.6-2.2-5.5-2.2-8.9c0-3.4,0.7-6.4,2.2-8.9s3.5-4.6,6.2-6.1
			c2.6-1.4,5.5-2.1,8.7-2.1c3.2,0,6.1,0.7,8.7,2.1c2.6,1.4,4.7,3.4,6.2,6.1c1.5,2.6,2.2,5.5,2.2,8.9s-0.7,6.4-2.3,8.9
			c-1.5,2.6-3.6,4.6-6.2,6.1c-2.7,1.4-5.5,2.1-8.7,2.1C32.6,56.7,29.7,56.1,27.1,54.6z M40.1,48.4c1.4-0.7,2.4-1.8,3.2-3.3
			c0.9-1.5,1.2-3.3,1.2-5.4c0-3.2-0.9-5.5-2.4-7.2c-1.7-1.7-3.7-2.6-6.1-2.6s-4.4,0.9-6.1,2.6c-1.6,1.7-2.4,4.1-2.4,7.2
			c0,3.2,0.7,5.5,2.3,7.2c1.6,1.7,3.5,2.6,6,2.6C37.3,49.5,38.7,49.1,40.1,48.4z"/>
		<path class="st1" d="M85.3,26.3c2.4,2.4,3.6,6,3.6,10.4v19.5h-8.4V37.9c0-2.7-0.6-4.7-2-6.1c-1.3-1.4-3.1-2.1-5.4-2.1
			c-2.3,0-4.1,0.7-5.4,2.1c-1.4,1.4-2,3.4-2,6.1v18.3h-8.4V23.2h8.4v4.1c1.1-1.4,2.6-2.6,4.3-3.4s3.6-1.3,5.7-1.3
			C79.7,22.6,82.8,23.9,85.3,26.3z"/>
		<path class="st1" d="M125.8,42.2h-24.2c0.2,2.3,1.1,4.3,2.6,5.6c1.5,1.4,3.3,2,5.4,2c3.1,0,5.3-1.4,6.6-4h9
			c-1,3.2-2.8,5.8-5.5,7.9c-2.7,2-6.1,3.1-10,3.1c-3.2,0-6.1-0.7-8.6-2.1s-4.5-3.4-6-6.1c-1.4-2.6-2.1-5.5-2.1-8.9
			c0-3.4,0.7-6.5,2.1-9c1.4-2.6,3.3-4.6,5.8-6c2.6-1.4,5.4-2.1,8.7-2.1c3.2,0,6,0.6,8.5,2c2.4,1.4,4.5,3.3,5.8,5.7
			c1.4,2.4,2,5.3,2,8.6C126,40.2,125.9,41.2,125.8,42.2z M117.4,36.6c0-2.1-0.9-3.8-2.3-5.2c-1.5-1.3-3.4-1.9-5.5-1.9
			c-2,0-3.8,0.6-5.2,1.9c-1.4,1.3-2.2,3-2.6,5.2H117.4z"/>
	</g>
	<path class="st2" d="M163.4,24.1c1.9-1.1,4-1.5,6.5-1.5c2.9,0,5.4,0.7,7.7,2.1c2.3,1.4,4.1,3.4,5.4,6c1.4,2.6,2,5.5,2,8.9
		s-0.6,6.4-2,9c-1.4,2.7-3.2,4.7-5.4,6.1c-2.3,1.4-4.9,2.1-7.7,2.1c-2.4,0-4.6-0.5-6.4-1.5c-1.8-1-3.4-2.2-4.5-3.7v20.4h-8.4V23.2
		h8.4v4.8C160,26.5,161.4,25.2,163.4,24.1z M175.2,34.4c-0.9-1.5-1.9-2.6-3.2-3.3c-1.4-0.7-2.8-1.2-4.4-1.2c-1.5,0-3,0.4-4.3,1.2
		c-1.4,0.7-2.4,1.9-3.2,3.4c-0.9,1.5-1.3,3.2-1.3,5.2s0.4,3.7,1.3,5.2c0.9,1.5,1.9,2.6,3.2,3.4c1.4,0.7,2.8,1.2,4.3,1.2
		c1.6,0,3-0.4,4.4-1.2c1.4-0.7,2.4-1.9,3.2-3.4c0.9-1.5,1.3-3.2,1.3-5.2C176.4,37.6,176,35.8,175.2,34.4z"/>
	<path class="st2" d="M201.9,24.1c1.7-1,3.7-1.5,6-1.5v8.8h-2.2c-2.7,0-4.6,0.6-6,1.8c-1.4,1.3-2,3.4-2,6.5v16.5h-8.4V23.2h8.4v5.1
		C198.7,26.6,200.2,25.2,201.9,24.1z"/>
	<path class="st2" d="M211.5,17.7c-1-1-1.5-2.1-1.5-3.5s0.5-2.6,1.5-3.5s2.2-1.4,3.7-1.4s2.7,0.4,3.7,1.4c1,1,1.5,2.1,1.5,3.5
		s-0.5,2.6-1.5,3.5s-2.2,1.4-3.7,1.4C213.7,19.2,212.5,18.7,211.5,17.7z M219.4,23.2v33.2H211V23.2H219.4z"/>
	<path class="st2" d="M253.6,26.3c2.4,2.4,3.6,6,3.6,10.4v19.5h-8.4V37.9c0-2.7-0.6-4.7-2-6.1c-1.3-1.4-3.1-2.1-5.4-2.1
		s-4.1,0.7-5.4,2.1c-1.4,1.4-2,3.4-2,6.1v18.3h-8.4V23.2h8.4v4.1c1.1-1.4,2.6-2.6,4.3-3.4s3.6-1.3,5.7-1.3
		C248,22.6,251.2,23.9,253.6,26.3z"/>
	<path class="st2" d="M272.5,30V46c0,1.2,0.3,1.9,0.9,2.4s1.5,0.7,2.8,0.7h3.9v7h-5.2c-7,0-10.6-3.4-10.6-10.3V30h-3.9v-6.8h3.9V15
		h8.4v8.2h7.4v6.9h-7.5V30z"/>
	<path class="st2" d="M314.4,42.2h-24.2c0.2,2.3,1.1,4.3,2.6,5.6c1.5,1.4,3.3,2,5.4,2c3.1,0,5.3-1.4,6.6-4h9c-1,3.2-2.8,5.8-5.5,7.9
		c-2.7,2-6.1,3.1-10,3.1c-3.2,0-6.1-0.7-8.6-2.1c-2.6-1.4-4.5-3.4-6-6.1c-1.4-2.6-2.1-5.5-2.1-8.9c0-3.4,0.7-6.5,2.1-9
		s3.3-4.6,5.8-6c2.6-1.4,5.4-2.1,8.7-2.1c3.2,0,6,0.6,8.5,2c2.4,1.4,4.5,3.3,5.8,5.7c1.4,2.4,2,5.3,2,8.6
		C314.7,40.2,314.6,41.2,314.4,42.2z M306,36.6c0-2.1-0.9-3.8-2.3-5.2c-1.5-1.3-3.4-1.9-5.5-1.9c-2,0-3.8,0.6-5.2,1.9
		c-1.4,1.3-2.2,3-2.6,5.2H306z"/>
	<path class="st2" d="M331.6,24.1c1.7-1,3.7-1.5,6-1.5v8.8h-2.2c-2.7,0-4.6,0.6-6,1.8c-1.4,1.3-2,3.4-2,6.5v16.5H319V23.2h8.4v5.1
		C328.5,26.6,329.9,25.2,331.6,24.1z"/>
</g>
</svg>
